<svg width="300" height="300" viewBox="0 0 300 300" fill="none" xmlns="http://www.w3.org/2000/svg">
<path d="M0 150C0 112.79 0 94.1844 4.45577 79.0094C15.0023 43.0913 43.0913 15.0023 79.0094 4.45577C94.1844 0 112.79 0 150 0C187.21 0 205.816 0 220.991 4.45577C256.909 15.0023 284.998 43.0913 295.544 79.0094C300 94.1844 300 112.79 300 150C300 187.21 300 205.816 295.544 220.991C284.998 256.909 256.909 284.998 220.991 295.544C205.816 300 187.21 300 150 300C112.79 300 94.1844 300 79.0094 295.544C43.0913 284.998 15.0023 256.909 4.45577 220.991C0 205.816 0 187.21 0 150Z" fill="#F2F2F2"/>
<path d="M165.482 101.17H130.615L222.917 142.065L150.13 174.717L32 121.773L59.3208 109.516L159.497 154.374L177.451 146.289L77.2745 101.17L113.963 85H186.558L268 121.68L240.136 134.276L165.482 101.17Z" fill="#023E73"/>
<path d="M259.74 141.383V152.227L257.288 153.327V142.483L249.698 145.886V152.924L247.246 154.024V146.986L239.656 150.388V157.431L237.204 158.531V151.488L229.614 154.89V161.938L227.162 163.038V155.986L219.572 159.388V166.44L217.12 167.54V160.484L209.53 163.886V174.753L207.078 175.853V164.982L199.488 168.384V175.45L197.036 176.55V169.485L189.445 172.887V179.957L186.994 181.057V173.987L179.403 177.389V184.464L176.952 185.564V178.489L169.361 181.892V188.971L166.91 190.071V182.992L159.319 186.394V197.288L156.868 198.388V187.494L150.134 190.511L150.104 190.525L149.968 190.461L32.258 137.944V162.574L150.146 215.403L267.998 162.588V137.683L259.74 141.383ZM222.182 166.032L222.047 165.972V165.945L222.182 166.009V166.037V166.032Z" fill="#012340"/>
</svg>
